<svg width="49" height="48" viewBox="0 0 49 48" fill="none" xmlns="http://www.w3.org/2000/svg">
<path d="M24.4998 47.1988C37.3128 47.1988 47.6998 36.8118 47.6998 23.9988C47.6998 11.1858 37.3128 0.798828 24.4998 0.798828C11.6868 0.798828 1.2998 11.1858 1.2998 23.9988C1.2998 36.8118 11.6868 47.1988 24.4998 47.1988Z" fill="#42A5F5"/>
<path d="M24.5 48C11.268 48 0.5 37.232 0.5 24C0.5 10.768 11.268 0 24.5 0C37.732 0 48.5 10.768 48.5 24C48.5 37.232 37.732 48 24.5 48ZM24.5 1.6C12.148 1.6 2.1 11.648 2.1 24C2.1 36.352 12.148 46.4 24.5 46.4C36.852 46.4 46.9 36.352 46.9 24C46.9 11.648 36.852 1.6 24.5 1.6Z" fill="#455A64"/>
<path d="M26.4521 32.8012H22.5481C20.1001 32.8012 18.1001 30.8012 18.1001 28.3532V28.0012C18.1001 27.5532 18.4521 27.2012 18.9001 27.2012C19.3481 27.2012 19.7001 27.5532 19.7001 28.0012V28.3532C19.7001 29.9212 20.9801 31.2012 22.5481 31.2012H26.4521C28.0201 31.2012 29.3001 29.9212 29.3001 28.3532C29.3001 27.0892 28.4521 25.9692 27.2361 25.6172L21.3321 23.9372C19.4281 23.3772 18.1001 21.6172 18.1001 19.6492C18.1001 17.2012 20.1001 15.2012 22.5481 15.2012H26.4521C28.9001 15.2012 30.9001 17.2012 30.9001 19.6492V20.0012C30.9001 20.4492 30.5481 20.8012 30.1001 20.8012C29.6521 20.8012 29.3001 20.4492 29.3001 20.0012V19.6492C29.3001 18.0812 28.0201 16.8012 26.4521 16.8012H22.5481C20.9801 16.8012 19.7001 18.0812 19.7001 19.6492C19.7001 20.9132 20.5481 22.0332 21.7641 22.3852L27.6681 24.0652C29.5721 24.6092 30.9001 26.3692 30.9001 28.3372C30.9001 30.8012 28.9001 32.8012 26.4521 32.8012Z" fill="white"/>
<path d="M24.5002 36.0012C24.0522 36.0012 23.7002 35.6492 23.7002 35.2012V32.0012C23.7002 31.5532 24.0522 31.2012 24.5002 31.2012C24.9482 31.2012 25.3002 31.5532 25.3002 32.0012V35.2012C25.3002 35.6492 24.9482 36.0012 24.5002 36.0012Z" fill="white"/>
<path d="M24.5002 16.8C24.0522 16.8 23.7002 16.448 23.7002 16V12.8C23.7002 12.352 24.0522 12 24.5002 12C24.9482 12 25.3002 12.352 25.3002 12.8V16C25.3002 16.448 24.9482 16.8 24.5002 16.8Z" fill="white"/>
<path d="M18.8999 40.6244C18.8039 40.6244 18.7239 40.6084 18.6279 40.5764C11.6199 38.0964 6.8999 31.4244 6.8999 24.0004C6.8999 16.5764 11.6199 9.9044 18.6279 7.4244C19.0439 7.2804 19.4919 7.48841 19.6519 7.90441C19.7959 8.32041 19.5879 8.7844 19.1719 8.92841C12.7879 11.1844 8.4999 17.2484 8.4999 24.0004C8.4999 30.7524 12.7879 36.8164 19.1719 39.0724C19.5879 39.2164 19.8119 39.6804 19.6519 40.0964C19.5399 40.4164 19.2359 40.6244 18.8999 40.6244Z" fill="white"/>
<path d="M30.1003 40.622C29.7643 40.622 29.4603 40.414 29.3483 40.094C29.2043 39.678 29.4123 39.214 29.8283 39.07C36.2123 36.814 40.5003 30.75 40.5003 23.998C40.5003 17.246 36.2123 11.182 29.8283 8.92601C29.4123 8.782 29.1883 8.31801 29.3483 7.90201C29.4923 7.48601 29.9563 7.26201 30.3723 7.42201C37.3803 9.902 42.1003 16.574 42.1003 23.998C42.1003 31.422 37.3803 38.094 30.3723 40.574C30.2763 40.606 30.1963 40.622 30.1003 40.622Z" fill="white"/>
</svg>
