<svg width="14" height="14" viewBox="0 0 14 14" fill="none" xmlns="http://www.w3.org/2000/svg">
<g clip-path="url(#clip0_1563_6488)">
<rect width="14" height="14" fill="#fff"/>
<path d="M7.24238 0.0737622C7.17057 0.0259808 7.08625 0.000488281 7 0.000488281C6.91375 0.000488281 6.82943 0.0259808 6.75763 0.0737622L0.195125 4.44876C0.117029 4.50084 0.057751 4.57665 0.026048 4.665C-0.00565493 4.75335 -0.00810209 4.84955 0.019068 4.9394C0.046238 5.02925 0.101585 5.10797 0.176933 5.16395C0.25228 5.21993 0.343634 5.25019 0.4375 5.25026H2.07812V11.3753H1.3125C1.19647 11.3753 1.08519 11.4214 1.00314 11.5034C0.921094 11.5855 0.875 11.6967 0.875 11.8128C0.875 11.9288 0.921094 12.0401 1.00314 12.1221C1.08519 12.2042 1.19647 12.2503 1.3125 12.2503H12.6875C12.8035 12.2503 12.9148 12.2042 12.9969 12.1221C13.0789 12.0401 13.125 11.9288 13.125 11.8128C13.125 11.6967 13.0789 11.5855 12.9969 11.5034C12.9148 11.4214 12.8035 11.3753 12.6875 11.3753H11.9219V5.25026H13.5625C13.6564 5.25019 13.7477 5.21993 13.8231 5.16395C13.8984 5.10797 13.9538 5.02925 13.9809 4.9394C14.0081 4.84955 14.0057 4.75335 13.974 4.665C13.9422 4.57665 13.883 4.50084 13.8049 4.44876L7.24238 0.0737622ZM10.8281 5.25026V11.3753H9.73438V5.25026H10.8281ZM8.64062 5.25026V11.3753H7.54688V5.25026H8.64062ZM6.45312 5.25026V11.3753H5.35938V5.25026H6.45312ZM4.26562 5.25026V11.3753H3.17188V5.25026H4.26562ZM7 3.50026C6.76794 3.50026 6.54538 3.40807 6.38128 3.24398C6.21719 3.07989 6.125 2.85733 6.125 2.62526C6.125 2.3932 6.21719 2.17064 6.38128 2.00654C6.54538 1.84245 6.76794 1.75026 7 1.75026C7.23206 1.75026 7.45462 1.84245 7.61872 2.00654C7.78281 2.17064 7.875 2.3932 7.875 2.62526C7.875 2.85733 7.78281 3.07989 7.61872 3.24398C7.45462 3.40807 7.23206 3.50026 7 3.50026ZM0.4375 13.1253C0.321468 13.1253 0.210188 13.1714 0.128141 13.2534C0.0460936 13.3355 0 13.4467 0 13.5628C0 13.6788 0.0460936 13.7901 0.128141 13.8721C0.210188 13.9542 0.321468 14.0003 0.4375 14.0003H13.5625C13.6785 14.0003 13.7898 13.9542 13.8719 13.8721C13.9539 13.7901 14 13.6788 14 13.5628C14 13.4467 13.9539 13.3355 13.8719 13.2534C13.7898 13.1714 13.6785 13.1253 13.5625 13.1253H0.4375Z" fill="#9884A4"/>
</g>
<defs>
<clipPath id="clip0_1563_6488">
<rect width="14" height="14" fill="#fff"/>
</clipPath>
</defs>
</svg>
