<svg width="32" height="32" viewBox="0 0 32 32" fill="none" xmlns="http://www.w3.org/2000/svg">
<circle cx="16" cy="16" r="16" fill="#F9F2FC"/>
<g clip-path="url(#clip0_1563_6486)">
<rect width="14" height="14" transform="translate(9 9)" fill="#F9F2FC"/>
<path d="M16.2424 9.07376C16.1706 9.02598 16.0862 9.00049 16 9.00049C15.9138 9.00049 15.8294 9.02598 15.7576 9.07376L9.19512 13.4488C9.11703 13.5008 9.05775 13.5766 9.02605 13.665C8.99435 13.7533 8.9919 13.8496 9.01907 13.9394C9.04624 14.0292 9.10158 14.108 9.17693 14.164C9.25228 14.2199 9.34363 14.2502 9.4375 14.2503H11.0781V20.3753H10.3125C10.1965 20.3753 10.0852 20.4214 10.0031 20.5034C9.92109 20.5855 9.875 20.6967 9.875 20.8128C9.875 20.9288 9.92109 21.0401 10.0031 21.1221C10.0852 21.2042 10.1965 21.2503 10.3125 21.2503H21.6875C21.8035 21.2503 21.9148 21.2042 21.9969 21.1221C22.0789 21.0401 22.125 20.9288 22.125 20.8128C22.125 20.6967 22.0789 20.5855 21.9969 20.5034C21.9148 20.4214 21.8035 20.3753 21.6875 20.3753H20.9219V14.2503H22.5625C22.6564 14.2502 22.7477 14.2199 22.8231 14.164C22.8984 14.108 22.9538 14.0292 22.9809 13.9394C23.0081 13.8496 23.0057 13.7533 22.974 13.665C22.9422 13.5766 22.883 13.5008 22.8049 13.4488L16.2424 9.07376ZM19.8281 14.2503V20.3753H18.7344V14.2503H19.8281ZM17.6406 14.2503V20.3753H16.5469V14.2503H17.6406ZM15.4531 14.2503V20.3753H14.3594V14.2503H15.4531ZM13.2656 14.2503V20.3753H12.1719V14.2503H13.2656ZM16 12.5003C15.7679 12.5003 15.5454 12.4081 15.3813 12.244C15.2172 12.0799 15.125 11.8573 15.125 11.6253C15.125 11.3932 15.2172 11.1706 15.3813 11.0065C15.5454 10.8424 15.7679 10.7503 16 10.7503C16.2321 10.7503 16.4546 10.8424 16.6187 11.0065C16.7828 11.1706 16.875 11.3932 16.875 11.6253C16.875 11.8573 16.7828 12.0799 16.6187 12.244C16.4546 12.4081 16.2321 12.5003 16 12.5003ZM9.4375 22.1253C9.32147 22.1253 9.21019 22.1714 9.12814 22.2534C9.04609 22.3355 9 22.4467 9 22.5628C9 22.6788 9.04609 22.7901 9.12814 22.8721C9.21019 22.9542 9.32147 23.0003 9.4375 23.0003H22.5625C22.6785 23.0003 22.7898 22.9542 22.8719 22.8721C22.9539 22.7901 23 22.6788 23 22.5628C23 22.4467 22.9539 22.3355 22.8719 22.2534C22.7898 22.1714 22.6785 22.1253 22.5625 22.1253H9.4375Z" fill="#9884A4"/>
</g>
<defs>
<clipPath id="clip0_1563_6486">
<rect width="14" height="14" fill="white" transform="translate(9 9)"/>
</clipPath>
</defs>
</svg>
