<svg width="49" height="49" viewBox="0 0 49 49" fill="none" xmlns="http://www.w3.org/2000/svg">
<path d="M24.5 48.5C37.7548 48.5 48.5 37.7548 48.5 24.5C48.5 11.2452 37.7548 0.5 24.5 0.5C11.2452 0.5 0.5 11.2452 0.5 24.5C0.5 37.7548 11.2452 48.5 24.5 48.5Z" fill="#8DC351"/>
<path d="M32.3106 16.3011C31.1466 13.3431 28.2276 13.0761 24.8286 13.7361L23.6181 9.5166L21.0501 10.2531L22.2291 14.3631C21.5541 14.5551 20.8671 14.7681 20.1846 14.9781L18.9996 10.8411L16.4331 11.5761L17.6406 15.7956C17.0886 15.9666 16.5456 16.1346 16.0131 16.2876L16.0086 16.2726L12.4656 17.2881L13.2531 20.0331C13.2531 20.0331 15.1401 19.4511 15.1176 19.4961C16.1586 19.1976 16.6701 19.7046 16.9176 20.1981L18.2976 25.0041C18.3681 24.9846 18.4626 24.9606 18.5736 24.9441L18.3021 25.0221L20.2326 31.7571C20.2806 32.0976 20.2386 32.6751 19.5126 32.8851C19.5531 32.9046 17.6436 33.4191 17.6436 33.4191L18.0141 36.6336L21.3561 35.6736C21.9786 35.4981 22.5936 35.3331 23.1951 35.1636L24.4206 39.4311L26.9856 38.6961L25.7751 34.4736C26.4631 34.291 27.1492 34.101 27.8331 33.9036L29.0361 38.1081L31.6056 37.3716L30.3846 33.1116C34.6311 31.6251 37.3416 29.6706 36.5541 25.5066C35.9211 22.1556 33.9681 21.1386 31.3476 21.2526C32.6196 20.0676 33.1671 18.4641 32.3106 16.3011ZM31.3356 26.4561C32.2506 29.6466 26.6856 30.8496 24.9456 31.3506L23.3241 25.6956C25.0641 25.1961 30.3801 23.1306 31.3341 26.4576L31.3356 26.4561ZM27.8526 18.8211C28.6836 21.7236 24.0321 22.6911 22.5816 23.1066L21.1116 17.9781C22.5606 17.5626 26.9841 15.7956 27.8526 18.8226V18.8211Z" fill="white"/>
</svg>
