<svg width="49" height="48" viewBox="0 0 49 48" fill="none" xmlns="http://www.w3.org/2000/svg">
<path fill-rule="evenodd" clip-rule="evenodd" d="M48.5 24C48.5 37.2548 37.7549 48 24.5001 48C11.2452 48 0.5 37.2548 0.5 24C0.5 10.7452 11.2452 0 24.5001 0C37.7549 0 48.5 10.7452 48.5 24ZM30.2659 15.0831C33.6045 16.2296 36.0466 17.9461 35.5674 21.1408C35.2195 23.4802 33.9177 24.6117 32.1883 25.0078C34.561 26.2384 35.3698 28.5736 34.6183 31.3972C33.1917 35.4608 29.8004 35.8028 25.2898 34.9535L24.1946 39.3216L21.5506 38.6644L22.6308 34.3549C21.9454 34.1853 21.2448 34.0037 20.5231 33.8101L19.4385 38.1408L16.7974 37.4835L17.8912 33.1063L12.5656 31.7679L13.8793 28.7517C13.8793 28.7517 15.8287 29.2664 15.8016 29.2289C16.5504 29.4134 16.8833 28.9273 17.0144 28.6047L19.9823 16.7488C20.0154 16.189 19.821 15.4838 18.7499 15.2167C18.7906 15.1882 16.8291 14.741 16.8291 14.741L17.5327 11.9275L22.8658 13.2434L23.9506 8.91582L26.5931 9.57307L25.5309 13.8152C26.242 13.9757 26.9561 14.1393 27.6506 14.3119L28.7052 10.0968L31.3492 10.754L30.2659 15.0831ZM23.9395 22.3022C25.7405 22.7797 29.6597 23.8188 30.3428 21.0944C31.0397 18.3071 27.2322 17.4654 25.3679 17.0532C25.1568 17.0065 24.9702 16.9653 24.8182 16.9275L23.5016 22.1884C23.6271 22.2193 23.7744 22.2585 23.9395 22.3022ZM21.899 30.7726C24.0561 31.3408 28.774 32.5834 29.5247 29.5816C30.2931 26.5122 25.7188 25.4899 23.4869 24.991C23.2378 24.9353 23.0172 24.8861 22.8372 24.8413L21.3848 30.6395C21.5323 30.676 21.7057 30.7217 21.899 30.7726Z" fill="#F7931A"/>
</svg>
