<svg width="32" height="32" viewBox="0 0 32 32" fill="none" xmlns="http://www.w3.org/2000/svg">
<circle cx="16" cy="16" r="16" fill="#F9F2FC"/>
<path fill-rule="evenodd" clip-rule="evenodd" d="M8.97526 11H23.0247C23.5612 11 24 11.4388 24 11.975V21.03C24 21.5662 23.5612 22.005 23.0247 22.005H8.97526C8.43883 22.005 8 21.5662 8 21.03V11.975C8 11.4387 8.43883 11 8.97526 11ZM20.0127 18.0281C20.266 18.0281 20.5015 18.1039 20.698 18.2338C20.8946 18.1038 21.1302 18.0281 21.3836 18.0281C22.0712 18.0281 22.6286 18.5857 22.6286 19.2732C22.6286 19.961 22.0712 20.5184 21.3836 20.5184C21.1302 20.5184 20.8946 20.4426 20.698 20.3129C20.5014 20.4426 20.266 20.5184 20.0127 20.5184C19.3251 20.5184 18.7675 19.961 18.7675 19.2732C18.7675 18.5857 19.3251 18.0281 20.0127 18.0281ZM9.67194 17.5214H14.0545V18.5756H9.67194V17.5214ZM9.67194 19.4522H16.4653V20.5064H9.67194V19.4522Z" fill="#9884A4"/>
</svg>
