<svg width="32" height="33" viewBox="0 0 32 33" fill="none" xmlns="http://www.w3.org/2000/svg">
<circle cx="16" cy="16.5" r="16" fill="#F9F2FC"/>
<g clip-path="url(#clip0_1563_6543)">
<path fill-rule="evenodd" clip-rule="evenodd" d="M16 9.5C15.3963 9.5 14.3874 9.73188 13.438 9.99C12.4668 10.2525 11.4876 10.5631 10.9119 10.7512C10.6712 10.8307 10.4577 10.9765 10.2962 11.1719C10.1346 11.3672 10.0314 11.6041 9.99838 11.8555C9.47688 15.7729 10.687 18.6761 12.1553 20.5968C12.7779 21.4183 13.5203 22.1419 14.3576 22.7431C14.6954 22.982 15.0086 23.1649 15.2746 23.29C15.5196 23.4055 15.783 23.5 16 23.5C16.217 23.5 16.4795 23.4055 16.7254 23.29C17.0461 23.1341 17.3528 22.9512 17.6424 22.7431C18.4797 22.1419 19.2221 21.4184 19.8448 20.5968C21.313 18.6761 22.5231 15.7729 22.0016 11.8555C21.9687 11.604 21.8655 11.3669 21.7039 11.1715C21.5424 10.976 21.3289 10.83 21.0881 10.7504C20.2523 10.4763 19.41 10.2225 18.562 9.98913C17.6126 9.73275 16.6038 9.5 16 9.5ZM17.8778 14.0027C17.9599 13.9206 18.0713 13.8744 18.1875 13.8744C18.3037 13.8744 18.4151 13.9206 18.4973 14.0027C18.5794 14.0849 18.6256 14.1963 18.6256 14.3125C18.6256 14.4287 18.5794 14.5401 18.4973 14.6223L15.8723 17.2473C15.8316 17.288 15.7833 17.3203 15.7302 17.3424C15.677 17.3644 15.6201 17.3758 15.5625 17.3758C15.505 17.3758 15.448 17.3644 15.3948 17.3424C15.3417 17.3203 15.2934 17.288 15.2528 17.2473L13.9403 15.9348C13.8996 15.8941 13.8673 15.8458 13.8453 15.7926C13.8233 15.7395 13.812 15.6825 13.812 15.625C13.812 15.5675 13.8233 15.5105 13.8453 15.4574C13.8673 15.4042 13.8996 15.3559 13.9403 15.3152C13.9809 15.2746 14.0292 15.2423 14.0824 15.2203C14.1355 15.1983 14.1925 15.1869 14.25 15.1869C14.3075 15.1869 14.3645 15.1983 14.4176 15.2203C14.4708 15.2423 14.5191 15.2746 14.5598 15.3152L15.5625 16.3189L17.8778 14.0027Z" fill="#9884A4"/>
</g>
<defs>
<clipPath id="clip0_1563_6543">
<rect width="14" height="14" fill="white" transform="translate(9 9.5)"/>
</clipPath>
</defs>
</svg>
