<svg width="32" height="33" viewBox="0 0 32 33" fill="none" xmlns="http://www.w3.org/2000/svg">
<circle cx="16" cy="16.5" r="16" fill="#F9F2FC"/>
<path d="M18.9545 14.8889H14.4545V13.1111C14.4545 12.3171 14.8444 11.5835 15.4773 11.1866C16.1102 10.7897 16.8898 10.7897 17.5227 11.1866C18.1556 11.5835 18.5455 12.3172 18.5455 13.1111V13.5555C18.5455 13.7144 18.6234 13.8611 18.75 13.9405C18.8766 14.0198 19.0325 14.0198 19.1591 13.9405C19.2857 13.8611 19.3636 13.7144 19.3636 13.5555V13.1111C19.3636 11.9996 18.8178 10.9725 17.9318 10.4167C17.0458 9.86109 15.9542 9.86109 15.0682 10.4167C14.1822 10.9725 13.6364 11.9996 13.6364 13.1111V14.9333C13.1747 15.0365 12.7598 15.3094 12.4618 15.7061C12.1636 16.1028 12.0006 16.599 12 17.1111V19.7778C12.0006 20.367 12.2163 20.9318 12.5998 21.3483C12.9833 21.765 13.5031 21.9993 14.0455 22H18.9545C19.4969 21.9993 20.0167 21.765 20.4002 21.3483C20.7837 20.9318 20.9994 20.367 21 19.7778V17.1111C20.9994 16.5219 20.7837 15.9571 20.4002 15.5406C20.0167 15.1239 19.4969 14.8896 18.9545 14.8889Z" fill="#9884A4"/>
</svg>
