<svg width="24" height="24" viewBox="0 0 24 24" fill="none" xmlns="http://www.w3.org/2000/svg">
<rect width="24" height="24" rx="12" fill="#F9F8FA"/>
<path d="M12.8886 12L15.5674 9.32059C15.8109 9.077 15.8109 8.67627 15.5674 8.43269C15.3238 8.1891 14.9232 8.1891 14.6797 8.43269L12.001 11.1121L9.32227 8.43269C9.07875 8.1891 8.67812 8.1891 8.4346 8.43269C8.31284 8.55448 8.25 8.71556 8.25 8.87664C8.25 9.03772 8.31284 9.1988 8.4346 9.32059L11.1133 12L8.4346 14.6794C8.31284 14.8012 8.25 14.9623 8.25 15.1234C8.25 15.2844 8.31284 15.4455 8.4346 15.5673C8.67812 15.8109 9.07875 15.8109 9.32227 15.5673L12.001 12.8879L14.6797 15.5673C14.9232 15.8109 15.3238 15.8109 15.5674 15.5673C15.8109 15.3237 15.8109 14.923 15.5674 14.6794L12.8886 12Z" fill="#7614AC"/>
</svg>
