<svg width="49" height="48" viewBox="0 0 49 48" fill="none" xmlns="http://www.w3.org/2000/svg">
<path d="M38.0201 22.7C37.7386 22.3721 37.3585 22.1443 36.9366 22.0506C36.5148 21.9568 36.074 22.0022 35.6801 22.18L24.5001 27.2L13.3201 22.18C12.9262 22.0022 12.4854 21.9568 12.0636 22.0506C11.6417 22.1443 11.2616 22.3721 10.9801 22.7C10.6998 23.0308 10.5345 23.4437 10.5093 23.8766C10.484 24.3095 10.6001 24.7388 10.8401 25.1L22.8401 43.1C23.0231 43.3722 23.2702 43.5953 23.5596 43.7495C23.8491 43.9038 24.1721 43.9844 24.5001 43.9844C24.8281 43.9844 25.1511 43.9038 25.4406 43.7495C25.7301 43.5953 25.9772 43.3722 26.1601 43.1L38.1601 25.1C38.4001 24.7388 38.5162 24.3095 38.491 23.8766C38.4657 23.4437 38.3005 23.0308 38.0201 22.7Z" fill="#2CA9BC"/>
<path d="M38.16 22.9001L26.16 4.9001C25.9771 4.62785 25.73 4.40478 25.4405 4.25054C25.151 4.0963 24.8281 4.01562 24.5 4.01562C24.172 4.01562 23.8491 4.0963 23.5596 4.25054C23.2701 4.40478 23.023 4.62785 22.84 4.9001L10.84 22.9001C10.6789 23.1414 10.5722 23.4148 10.5273 23.7015C10.4824 23.9881 10.5004 24.2811 10.58 24.5601C10.6616 24.8371 10.8021 25.0931 10.992 25.3106C11.1819 25.5281 11.4166 25.7019 11.68 25.8201L23.68 31.2201C23.9379 31.336 24.2174 31.3959 24.5 31.3959C24.7827 31.3959 25.0622 31.336 25.32 31.2201L37.32 25.8201C37.5835 25.7019 37.8182 25.5281 38.0081 25.3106C38.198 25.0931 38.3385 24.8371 38.42 24.5601C38.4997 24.2811 38.5177 23.9881 38.4728 23.7015C38.4279 23.4148 38.3212 23.1414 38.16 22.9001Z" fill="black"/>
</svg>
