<svg width="25" height="24" viewBox="0 0 25 24" fill="none" xmlns="http://www.w3.org/2000/svg">
<circle cx="12.5" cy="12" r="12" fill="#E1DEE3"/>
<path d="M13.9479 12L16.8052 9.14196C17.0649 8.88214 17.0649 8.45469 16.8052 8.19487C16.5454 7.93504 16.1181 7.93504 15.8583 8.19487L13.001 11.0529L10.1438 8.19487C9.884 7.93504 9.45666 7.93504 9.19691 8.19487C9.06703 8.32478 9 8.4966 9 8.66841C9 8.84023 9.06703 9.01205 9.19691 9.14196L12.0542 12L9.19691 14.858C9.06703 14.988 9 15.1598 9 15.3316C9 15.5034 9.06703 15.6752 9.19691 15.8051C9.45666 16.065 9.884 16.065 10.1438 15.8051L13.001 12.9471L15.8583 15.8051C16.1181 16.065 16.5454 16.065 16.8052 15.8051C17.0649 15.5453 17.0649 15.1179 16.8052 14.858L13.9479 12Z" fill="#B1A3B8"/>
</svg>
