<svg width="24" height="24" viewBox="0 0 24 24" fill="none" xmlns="http://www.w3.org/2000/svg">
<circle cx="12" cy="12" r="12" fill="#FDF5E2"/>
<path d="M11.8383 12.6374L18.2478 8.91266L18.2279 15.4754L11.8184 19.2002L11.8383 12.6374Z" fill="#E02955"/>
<path d="M18.2478 8.91626L13.988 11.3916L12.7912 12.087L11.8382 12.641L5.48584 9.20097L11.9579 5.43359L18.2478 8.91626Z" fill="#FF3F6D"/>
<path d="M11.8382 12.6374L11.8183 19.2001L5.5484 15.8335L5.48584 9.19824L11.8382 12.6374Z" fill="#BC2255"/>
<path d="M7.7959 10.4023L7.81675 17.0666L8.9175 17.6143L8.90843 11.018L7.7959 10.4023Z" fill="#EDA229"/>
<path d="M14.2498 6.60229L7.79953 10.4023L7.80043 10.405L7.7959 10.4023L8.90843 11.018L15.347 7.2379L14.2498 6.60229Z" fill="#FFBF31"/>
<path d="M9.68752 6.71564L8.59131 7.35215L14.8639 10.8856L15.9601 10.2527L15.961 10.2509L9.68752 6.71564Z" fill="#F9D641"/>
<path d="M15.9645 10.25L15.96 10.2527L14.8638 10.8856L14.8837 17.4202L15.9854 16.7783L15.9645 10.25Z" fill="#FFBF31"/>
<path d="M11.628 8.0603L9.93066 11.2791L11.2427 11.7207L12.8457 8.695L11.628 8.0603Z" fill="#F9D641"/>
<g style="mix-blend-mode:multiply" opacity="0.7">
<path d="M14.648 8.06485C13.6162 8.0177 13.0831 8.17637 12.5372 8.32598C12.9226 8.0449 13.2989 7.69763 13.3252 7.3957C13.3542 7.04843 12.9389 6.70116 12.4185 6.48899C12.3385 6.39108 12.2269 6.32408 12.1029 6.29949C11.9461 6.27107 11.786 6.26649 11.6278 6.28589C11.4578 6.26649 11.286 6.27107 11.1173 6.29949C11.0328 6.31368 10.9524 6.34619 10.8817 6.39474C10.8111 6.4433 10.7519 6.50672 10.7084 6.58057C10.3158 6.79546 10.0284 7.09649 10.0519 7.39661C10.0773 7.71667 10.469 8.08842 10.848 8.37676C10.1816 8.21536 9.61037 8.01407 8.37272 8.06576C6.88209 8.12923 6.91383 8.92259 7.2076 9.27077C7.50137 9.61895 8.17143 10.2482 9.44354 9.91363C10.6622 9.59265 11.1318 9.22272 11.6278 8.89811C12.0884 9.22272 12.5236 9.59265 13.6552 9.91363C14.8339 10.2482 15.4568 9.61895 15.7307 9.27077C16.0045 8.92259 16.0317 8.12832 14.648 8.06485Z" fill="#B29AB2"/>
</g>
<path d="M12.5734 7.20981C12.4383 7.72844 12.2914 8.15823 12.4002 8.37856L11.2124 8.7503C11.1952 8.71857 11.1716 8.6823 11.1716 8.6823C11.0909 8.51819 11.1516 8.2362 11.2441 7.88984C11.381 7.37664 11.585 6.71928 11.4989 6.08186C11.4555 5.72483 11.3065 5.38889 11.0709 5.11712C11.0153 5.05204 10.9547 4.99141 10.8896 4.93578C10.7587 4.81356 10.5916 4.73719 10.4136 4.71817C10.6058 4.67012 11.1172 4.54408 11.3148 4.49965C11.5869 4.43891 11.8725 4.39992 12.1907 4.70095C12.2278 4.73554 12.2629 4.77217 12.2959 4.81066C12.5195 5.06761 12.6648 5.38318 12.7148 5.72009C12.8055 6.22784 12.6921 6.75283 12.5734 7.20981Z" fill="#FFBF31"/>
<path d="M10.2733 7.57336C11.5808 9.33872 11.1727 8.68227 11.1727 8.68227C11.0612 8.45831 11.2154 8.01493 11.3541 7.4836L11.3024 7.41197C10.7584 6.67753 10.6187 5.91318 10.7185 5.3619C10.7433 5.2066 10.7952 5.05684 10.8717 4.91943C10.5154 4.63019 10.1808 4.67462 9.95504 4.92668C9.54158 5.38004 9.48536 6.50889 10.2733 7.57336Z" fill="#D68021"/>
<path d="M10.7205 5.3619C10.7453 5.2066 10.7972 5.05684 10.8737 4.91943C10.5174 4.63019 10.1828 4.67462 9.95703 4.92668C10.2018 5.06632 10.4775 5.22408 10.7205 5.3619Z" fill="#C16E1B"/>
<path d="M15.9048 7.72575C15.9206 7.93727 15.8898 8.14967 15.8146 8.348C15.7394 8.54633 15.6216 8.72576 15.4696 8.87364C15.3789 8.95434 14.8812 9.24086 14.6046 9.39681C14.7646 9.2663 14.8938 9.10208 14.9829 8.91588C15.0721 8.72968 15.1191 8.52609 15.1205 8.31964C15.1314 7.99339 15.0493 7.67077 14.8839 7.38936C14.7154 7.11081 14.4631 6.89276 14.163 6.76645C14.1349 6.75557 14.1068 6.74469 14.0778 6.73563L14.0297 6.71931C13.7147 6.60555 13.3683 6.61461 13.0596 6.74469C13.3261 6.58239 13.8221 6.2859 13.9772 6.23784C14.2075 6.17025 14.4519 6.16617 14.6844 6.22606L14.7479 6.24238L14.8159 6.26141C14.9057 6.28941 14.9928 6.32553 15.0761 6.36931C15.3478 6.51411 15.5691 6.73796 15.7108 7.01126C15.8265 7.23255 15.8927 7.47634 15.9048 7.72575Z" fill="#FFBF31"/>
<path d="M11.9645 8.71224C11.5039 8.78024 10.9472 6.81722 9.67052 7.05387C10.2399 7.56253 10.5872 8.40668 10.8919 8.36134C10.8919 8.36134 11.26 8.25979 9.52273 9.25444C9.2875 9.39575 9.02898 9.494 8.75928 9.54459C9.11199 9.94989 9.73943 10.0959 10.5954 9.60534C12.3326 8.61068 11.9645 8.71224 11.9645 8.71224Z" fill="#F9D641"/>
<path d="M10.1682 7.07291C9.86688 6.99629 9.54767 7.03781 9.27599 7.18898C9.23338 7.21074 9.19167 7.23341 9.15177 7.25789C8.89112 7.4192 8.68658 7.65699 8.56604 7.93882C8.54043 7.99781 8.51863 8.05838 8.50076 8.12016C8.31216 8.75486 8.51164 9.47388 9.03753 9.77219C8.74836 9.66579 8.4648 9.54474 8.18794 9.4095C7.6956 9.06586 7.5333 8.32145 7.7636 7.70399C7.78538 7.64649 7.81019 7.5902 7.83795 7.53534C7.98311 7.24836 8.21765 7.01636 8.5062 6.87435C8.53797 6.85796 8.57067 6.84343 8.60412 6.83083C8.81282 6.73459 9.0445 6.69939 9.27237 6.72927C9.42016 6.75466 9.90434 6.95958 10.1682 7.07291Z" fill="#FFBF31"/>
<path d="M11.9644 8.71224C11.5038 8.78024 10.9471 6.81722 9.67041 7.05387C10.2398 7.56253 10.5871 8.40668 10.8917 8.36134C10.8917 8.36134 11.1347 8.29424 10.2924 8.80381H11.9091C12.0659 8.68413 11.9644 8.71224 11.9644 8.71224Z" fill="#C16E1B"/>
<g style="mix-blend-mode:multiply" opacity="0.5">
<g style="mix-blend-mode:multiply" opacity="0.5">
<path d="M11.9896 9.04953C12.1456 10.0578 13.3243 10.7351 13.1475 11.0878C12.9707 11.4405 12.9408 11.3535 12.9408 11.3535H11.4982C10.791 11.3535 10.5552 10.5873 11.4683 8.52637L11.9896 9.04953Z" fill="#DB6A85"/>
</g>
</g>
<path d="M11.5807 8.63058C11.5807 8.25701 11.4673 7.57245 11.859 7.57245C12.2507 7.57245 12.8174 8.93977 12.8174 8.93977L11.9896 9.04947L11.5807 8.63058Z" fill="#D68021"/>
<path d="M11.5806 8.63965C11.5806 9.37953 11.5344 11.1948 11.839 11.1948C12.4184 11.1948 12.8183 8.02672 12.8183 8.02672L11.9896 7.80548L11.5806 8.63965Z" fill="#D68021"/>
<path d="M13.5602 10.2209C13.5221 10.774 13.4468 11.1811 13.3353 11.1485L11.8628 11.1811C11.9535 11.1585 12.0305 10.5945 12.0704 9.91808C12.1015 9.41817 12.106 8.91697 12.084 8.41658C12.076 8.20988 12.0506 8.00423 12.0079 7.80183C11.9725 7.65676 11.9244 7.56971 11.8637 7.56971L13.3353 7.50171C13.3942 7.47995 13.4432 7.58059 13.4813 7.76284C13.5209 7.96696 13.5463 8.17358 13.5574 8.38121C13.5982 8.99374 13.5991 9.60828 13.5602 10.2209Z" fill="#FFBF31"/>
<path opacity="0.6" d="M13.5602 10.221C13.5221 10.7741 13.4468 11.1812 13.3353 11.1486L11.8628 11.1812C11.9535 11.1585 12.0305 10.5946 12.0704 9.91815C12.6117 10.0387 13.1032 10.143 13.5602 10.221Z" fill="#CE3434"/>
<path opacity="0.4" d="M9.03753 9.77304C8.74836 9.66665 8.4648 9.5456 8.18794 9.41036C7.6956 9.06672 7.5333 8.32231 7.7636 7.70484C7.78538 7.64735 7.81019 7.59105 7.83795 7.53619C8.04431 7.74678 8.26584 7.94194 8.50076 8.12011C8.31216 8.75299 8.51164 9.47473 9.03753 9.77304Z" fill="#CE3434"/>
<g style="mix-blend-mode:overlay">
<path d="M15.9049 7.72574C15.675 7.96227 15.4106 8.16251 15.1206 8.31964C15.1314 7.99338 15.0493 7.67076 14.8839 7.38935C14.7168 7.10969 14.464 6.89128 14.1631 6.76644C14.3553 6.60505 14.5666 6.41465 14.7479 6.24237L14.8159 6.26141C15.0078 6.32059 15.186 6.41737 15.3401 6.5461C15.4942 6.67484 15.6212 6.83296 15.7136 7.01126C15.8283 7.23276 15.8936 7.47654 15.9049 7.72574Z" fill="#FFC5C5"/>
</g>
<g style="mix-blend-mode:overlay">
<path d="M12.7151 5.72007L11.4965 6.08276C11.4531 5.72573 11.3041 5.38979 11.0685 5.11802C11.0129 5.05293 10.9523 4.9923 10.8872 4.93668L12.1883 4.70184C12.2254 4.73644 12.2605 4.77306 12.2935 4.81155C12.5179 5.06793 12.6642 5.38319 12.7151 5.72007Z" fill="#FFC5C5"/>
</g>
<g style="mix-blend-mode:overlay">
<path d="M10.1679 7.07293C9.86655 6.9963 9.54734 7.03783 9.27567 7.18899C9.23305 7.21075 9.19134 7.23342 9.15145 7.2579L8.60742 6.83266C8.81612 6.73643 9.0478 6.70122 9.27567 6.73111C9.41983 6.75468 9.90401 6.95959 10.1679 7.07293Z" fill="#FFC5C5"/>
</g>
<g style="mix-blend-mode:overlay">
<path d="M13.5579 8.3813C13.0664 8.37586 12.5753 8.38764 12.0845 8.41666C12.0765 8.20996 12.051 8.00431 12.0083 7.80191C12.4997 7.77169 12.9909 7.75869 13.4817 7.76293C13.5213 7.96705 13.5468 8.17366 13.5579 8.3813Z" fill="white"/>
</g>
<path d="M14.4177 6.90338C14.6289 6.71479 14.8511 6.5407 15.0759 6.36933C14.9926 6.32555 14.9055 6.28943 14.8157 6.26143L14.7477 6.24239L14.6842 6.22607C14.4748 6.38656 14.2717 6.55521 14.0776 6.73564L14.4177 6.90338Z" fill="white"/>
<path d="M13.9873 11.3915L13.9828 11.3943L12.7896 12.0825L12.8113 13.7263L14.0091 13.0281L13.9873 11.3915Z" fill="#FFBF31"/>
<path d="M14.2121 11.2018L13.0152 11.8973L11.3687 8.28405L12.5864 7.64935L14.2121 11.2018Z" fill="#F9D641"/>
<path d="M11.5646 8.57774C12.066 8.5723 12.4196 6.41615 13.8159 6.45242C13.2719 7.08167 12.9999 8.02737 12.669 8.031C12.669 8.031 12.2627 7.98475 14.2457 8.74186C14.5168 8.85352 14.8059 8.91497 15.0989 8.9232C14.7716 9.40829 14.1179 9.66579 13.1413 9.29223C11.1584 8.5315 11.5646 8.57774 11.5646 8.57774Z" fill="#EDA229"/>
</svg>
