<svg width="18" height="18" viewBox="0 0 18 18" fill="none" xmlns="http://www.w3.org/2000/svg">
<path d="M17.2088 9.92352H15.7966V16.5585C15.7966 16.748 15.7586 16.9357 15.6848 17.1107C15.611 17.2858 15.5028 17.4449 15.3664 17.5788C15.2301 17.7126 15.0682 17.8188 14.8902 17.8911C14.7121 17.9633 14.5212 18.0004 14.3286 18H11.2897V14.1467C11.2897 13.5493 11.0484 12.9763 10.619 12.5538C10.1896 12.1313 9.60725 11.894 9 11.894C8.39274 11.894 7.81036 12.1313 7.38097 12.5538C6.95157 12.9763 6.71034 13.5493 6.71034 14.1467V18H3.67139C3.47875 18.0004 3.28793 17.9633 3.10984 17.8911C2.93176 17.8188 2.76992 17.7126 2.63357 17.5788C2.49722 17.4449 2.38905 17.2858 2.31524 17.1107C2.24144 16.9357 2.20345 16.748 2.20345 16.5585V9.92352H0.791214C0.635931 9.92301 0.484208 9.8777 0.354831 9.79321C0.225454 9.70872 0.124104 9.58875 0.0633287 9.44815C0.00255296 9.30756 -0.0149799 9.15252 0.0129016 9.00222C0.0407831 8.85192 0.112854 8.71297 0.220192 8.60256L8.44291 0.224619C8.59142 0.0806821 8.79153 0 9 0C9.20847 0 9.40858 0.0806821 9.55709 0.224619L17.7798 8.60256C17.8871 8.71297 17.9592 8.85192 17.9871 9.00222C18.015 9.15252 17.9974 9.30756 17.9367 9.44815C17.8759 9.58875 17.7745 9.70872 17.6452 9.79321C17.5158 9.8777 17.3641 9.92301 17.2088 9.92352Z" fill="#7614AC"/>
</svg>
