<svg width="32" height="32" viewBox="0 0 32 32" fill="none" xmlns="http://www.w3.org/2000/svg">
<path d="M18.3697 16L25.513 8.8549C26.1623 8.20534 26.1623 7.13672 25.513 6.48717C24.8636 5.83761 23.7952 5.83761 23.1459 6.48717L16.0026 13.6323L8.85939 6.48717C8.21 5.83761 7.14166 5.83761 6.49228 6.48717C6.16758 6.81194 6 7.24149 6 7.67103C6 8.10058 6.16758 8.53012 6.49228 8.8549L13.6355 16L6.49228 23.1451C6.16758 23.4699 6 23.8994 6 24.329C6 24.7585 6.16758 25.1881 6.49228 25.5128C7.14166 26.1624 8.21 26.1624 8.85939 25.5128L16.0026 18.3677L23.1459 25.5128C23.7952 26.1624 24.8636 26.1624 25.513 25.5128C26.1623 24.8633 26.1623 23.7947 25.513 23.1451L18.3697 16Z" fill="#7614AC"/>
</svg>
