<svg width="32" height="33" viewBox="0 0 32 33" fill="none" xmlns="http://www.w3.org/2000/svg">
<circle cx="16" cy="16.5" r="16" fill="#F9F2FC"/>
<path d="M15.997 22.7503C16.9688 22.7503 17.5001 22.0628 17.5001 21.094H14.4907C14.4907 22.0628 15.022 22.7503 15.997 22.7503ZM20.8751 19.5065C20.3938 18.8722 19.447 18.5003 19.447 15.6597C19.447 12.744 18.1595 11.5722 16.9595 11.2909C16.847 11.2628 16.7657 11.2253 16.7657 11.1065V11.0159C16.7657 10.5972 16.422 10.244 16.0032 10.2472C15.5845 10.2409 15.2407 10.5972 15.2407 11.0159V11.1065C15.2407 11.2222 15.1595 11.2628 15.047 11.2909C13.8438 11.5753 12.5595 12.744 12.5595 15.6597C12.5595 18.5003 11.6126 18.869 11.1313 19.5065C10.822 19.9159 11.1157 20.5003 11.6282 20.5003H20.3813C20.8907 20.5003 21.1845 19.9128 20.8751 19.5065Z" fill="#9884A4"/>
</svg>
