<svg width="17" height="17" viewBox="0 0 17 17" fill="none" xmlns="http://www.w3.org/2000/svg">
<path d="M8.49696 15.1407C9.52958 15.1407 10.094 14.4102 10.094 13.3809H6.89657C6.89657 14.4102 7.46103 15.1407 8.49696 15.1407ZM13.68 11.6942C13.1686 11.0202 12.1626 10.625 12.1626 7.60689C12.1626 4.50903 10.7946 3.26392 9.51962 2.96509C9.40009 2.93521 9.31376 2.89536 9.31376 2.76919V2.6729C9.31376 2.22798 8.94853 1.85278 8.5036 1.8561C8.05868 1.84946 7.69345 2.22798 7.69345 2.6729V2.76919C7.69345 2.89204 7.60712 2.93521 7.48759 2.96509C6.20927 3.26724 4.84462 4.50903 4.84462 7.60689C4.84462 10.625 3.83857 11.0168 3.32724 11.6942C2.99853 12.1292 3.31064 12.75 3.85517 12.75H13.1554C13.6966 12.75 14.0087 12.1258 13.68 11.6942Z" fill="#7614AC"/>
</svg>
