<svg width="44" height="44" viewBox="0 0 44 44" fill="none" xmlns="http://www.w3.org/2000/svg">
<rect y="1" width="40" height="40" rx="20" fill="#F9F8FA"/>
<path d="M19.9959 30.3752C21.4538 30.3752 22.2506 29.3439 22.2506 27.8908H17.7366C17.7366 29.3439 18.5334 30.3752 19.9959 30.3752ZM27.3131 25.5095C26.5913 24.558 25.1709 24.0002 25.1709 19.7392C25.1709 15.3658 23.2397 13.608 21.4397 13.1861C21.2709 13.1439 21.1491 13.0877 21.1491 12.9095V12.7736C21.1491 12.1455 20.6334 11.6158 20.0053 11.6205C19.3772 11.6111 18.8616 12.1455 18.8616 12.7736V12.9095C18.8616 13.083 18.7397 13.1439 18.5709 13.1861C16.7663 13.6127 14.8397 15.3658 14.8397 19.7392C14.8397 24.0002 13.4194 24.5533 12.6975 25.5095C12.2334 26.1236 12.6741 27.0002 13.4428 27.0002H26.5725C27.3366 27.0002 27.7772 26.1189 27.3131 25.5095Z" fill="#7614AC"/>
<circle cx="34" cy="8" r="4" fill="#D95C1E"/>
</svg>
