<svg width="49" height="48" viewBox="0 0 49 48" fill="none" xmlns="http://www.w3.org/2000/svg">
<path d="M29.5 16C29.0353 15.3779 28.4317 14.873 27.7371 14.5258C27.0426 14.1785 26.2765 13.9985 25.5 14H23.08C21.8653 14 20.7004 14.4825 19.8415 15.3415C18.9825 16.2004 18.5 17.3653 18.5 18.58C18.4998 19.5177 18.7873 20.4328 19.3238 21.2018C19.8603 21.9708 20.6199 22.5565 21.5 22.88L27.5 25.12C28.5103 25.4905 29.3579 26.2049 29.8941 27.1379C30.4303 28.0709 30.6209 29.1629 30.4324 30.2223C30.2438 31.2818 29.6883 32.241 28.8632 32.9318C28.0381 33.6226 26.9961 34.0008 25.92 34H23.5C22.7235 34.0016 21.9574 33.8215 21.2629 33.4743C20.5683 33.127 19.9647 32.6221 19.5 32" stroke="#2CA9BC" stroke-width="2" stroke-linecap="round" stroke-linejoin="round"/>
<path d="M14.5 24H34.5" stroke="#2CA9BC" stroke-width="2" stroke-linecap="round" stroke-linejoin="round"/>
<path d="M40.5 6H8.5C7.39543 6 6.5 6.89543 6.5 8V40C6.5 41.1046 7.39543 42 8.5 42H40.5C41.6046 42 42.5 41.1046 42.5 40V8C42.5 6.89543 41.6046 6 40.5 6Z" stroke="black" stroke-width="2" stroke-linecap="round" stroke-linejoin="round"/>
</svg>
