<svg width="48" height="48" viewBox="0 0 48 48" fill="none" xmlns="http://www.w3.org/2000/svg">
<g clip-path="url(#clip0_1454_5862)">
<circle cx="24" cy="24" r="23.75" stroke="#C9C1CD" stroke-width="0.5"/>
<mask id="mask0_1454_5862" style="mask-type:alpha" maskUnits="userSpaceOnUse" x="3" y="3" width="42" height="42">
<circle cx="23.9999" cy="24" r="20.7123" fill="#C4C4C4"/>
</mask>
<g mask="url(#mask0_1454_5862)">
<path d="M36.7115 16.2113C36.7115 17.2872 35.4948 18.1896 35.2295 19.1821C34.9561 20.2102 35.5494 21.5979 35.0299 22.4975C34.5104 23.397 32.997 23.5912 32.2573 24.3253C31.5177 25.0595 31.34 26.5702 30.4281 27.0979C29.5162 27.6256 28.1409 27.0241 27.1141 27.2989C26.1216 27.5641 25.2193 28.7809 24.1419 28.7809C23.0646 28.7809 22.1637 27.5641 21.1711 27.2989C20.1444 27.0255 18.7554 27.6188 17.8572 27.0979C16.9589 26.577 16.7634 25.0663 16.0279 24.3253C15.2924 23.5843 13.783 23.4093 13.2553 22.4975C12.7276 21.5856 13.3292 20.2102 13.0557 19.1821C12.7905 18.1896 11.5737 17.2872 11.5737 16.2113C11.5737 15.1354 12.7905 14.233 13.0557 13.2405C13.3292 12.2124 12.7358 10.8247 13.2553 9.92514C13.7748 9.02556 15.2883 8.83142 16.0279 8.09726C16.7675 7.36311 16.9439 5.85241 17.8572 5.32469C18.7704 4.79697 20.1444 5.39851 21.1711 5.12371C22.1637 4.85849 23.066 3.64172 24.1419 3.64172C25.2179 3.64172 26.1216 4.85849 27.1141 5.12371C28.1409 5.39714 29.5285 4.8038 30.4281 5.32469C31.3277 5.84557 31.5218 7.35627 32.2573 8.09726C32.9929 8.83826 34.5022 9.01326 35.0299 9.92514C35.5576 10.837 34.9547 12.2124 35.2295 13.2405C35.4948 14.233 36.7115 15.1354 36.7115 16.2113Z" fill="#33213D"/>
<path d="M17.0712 24.7861C18.3548 24.7861 19.3954 23.7456 19.3954 22.462C19.3954 21.1784 18.3548 20.1378 17.0712 20.1378C15.7876 20.1378 14.7471 21.1784 14.7471 22.462C14.7471 23.7456 15.7876 24.7861 17.0712 24.7861Z" fill="#F8F7F8"/>
<path d="M17.8725 24.5127C19.0806 24.5127 20.0599 23.5333 20.0599 22.3253C20.0599 21.1172 19.0806 20.1378 17.8725 20.1378C16.6644 20.1378 15.6851 21.1172 15.6851 22.3253C15.6851 23.5333 16.6644 24.5127 17.8725 24.5127Z" fill="#C9C1CD"/>
<path d="M39.1629 39.3025C34.7203 42.7232 29.2648 44.5667 23.6579 44.542C18.0509 44.5172 12.612 42.6256 8.19971 39.1658L14.8523 36.0473C15.1691 35.8984 15.4732 35.7237 15.7614 35.5251C15.8489 35.4649 15.9364 35.402 16.0198 35.3364C16.7438 34.7824 17.3398 34.0787 17.767 33.2734C18.3139 32.2412 18.4943 31.101 18.5026 29.9389C18.5026 29.1569 18.4602 28.3749 18.452 27.5915C18.4465 27.1586 18.4419 26.7252 18.4383 26.2913L18.7117 26.428L19.4199 26.8026L19.7494 26.8587L23.561 27.5067L27.8156 28.2313L27.9441 32.6062L28.007 34.7307V34.7759L29.6612 35.4485L39.1629 39.3025Z" fill="#F8F7F8"/>
<path d="M27.9908 34.2372L27.7802 34.2591C26.7636 34.3482 25.7398 34.2152 24.7798 33.8694C23.8197 33.5235 22.9462 32.9731 22.22 32.2562L18.4768 27.8116C18.4645 27.4151 18.4494 27.8116 18.4453 27.4137C18.4398 26.9808 18.4353 26.5474 18.4316 26.1136L18.7051 26.2503L19.416 26.6181L19.7455 26.6741L23.5571 27.3221L27.8117 28.0467L27.9402 32.4216L27.9908 34.2372Z" fill="#C9C1CD"/>
<path d="M17.7698 17.7316C17.6618 17.8683 17.5661 18.1349 17.4636 18.5669C17.2271 19.569 18.2634 26.1491 18.4616 28.085L23.4408 31.7572C24.2584 32.3676 25.1989 32.7931 26.1972 33.0041C27.1955 33.2151 28.2277 33.2067 29.2225 32.9794C30.025 32.7894 30.5336 32.6663 30.8959 32.0224C31.5958 30.792 33.3143 26.5825 33.4264 23.6131C33.4579 22.7709 33.4374 21.4858 32.9179 20.7667C32.6649 20.418 32.5351 20.4112 32.6267 19.9177C32.7183 19.4241 32.8563 18.8964 32.9698 18.3851C33.2829 16.9728 33.5331 15.3774 33.0806 13.9719C32.8399 13.22 32.4148 12.7224 31.8105 12.2398C31.1652 11.723 30.8986 11.7476 30.5117 12.5132C30.2506 13.0327 29.9881 13.4702 29.459 13.7655C28.692 14.1907 28.1698 13.9145 27.4083 13.8557C26.7411 13.8051 26.8122 14.3206 26.6659 14.8127C26.5144 15.3294 26.187 15.7768 25.7403 16.0773C25.3337 16.3411 24.86 16.4828 24.3754 16.4854C23.8907 16.4881 23.4155 16.3517 23.006 16.0924C22.8926 16.011 22.756 15.9683 22.6164 15.9707C22.1598 15.9953 22.1393 16.5435 22.0354 16.9373C21.8152 17.7576 20.8569 18.2115 20.0051 18.1458C18.6161 18.0419 18.1212 17.2681 17.7698 17.7316Z" fill="#F8F7F8"/>
<path d="M28.7425 20.1774C28.78 20.7085 28.8716 21.2344 29.0159 21.7469C29.1526 22.1994 29.3604 22.4811 29.6339 22.8707C29.7283 22.9994 29.8102 23.1367 29.8786 23.2809C30.2395 24.0929 29.7596 24.9939 28.8464 24.9939H28.2817" stroke="#33213D" stroke-width="0.5" stroke-miterlimit="10"/>
<path d="M24.7739 26.3337C25.4312 27.0668 26.3315 27.5373 27.3086 27.6584" stroke="#33213D" stroke-width="0.5" stroke-miterlimit="10"/>
<path d="M22.2212 18.6571C23.4869 18.3958 24.7886 18.3592 26.067 18.5491" stroke="#33213D" stroke-width="0.5" stroke-miterlimit="10"/>
<path d="M30.2944 18.6722C31.0762 18.49 31.8821 18.4342 32.6815 18.5068" stroke="#33213D" stroke-width="0.5" stroke-miterlimit="10"/>
<path d="M39.1629 39.3025C34.7203 42.7232 29.2648 44.5667 23.6579 44.5419C18.0509 44.5172 12.612 42.6256 8.19971 39.1657L14.8523 36.0473C15.1691 35.8983 15.4732 35.7237 15.7614 35.525C15.8489 35.4649 15.9364 35.402 16.0198 35.3364C19.2394 37.6277 23.6335 39.0728 27.4341 37.3625C28.3392 36.9523 29.1704 36.2906 29.6626 35.4403L39.1629 39.3025Z" fill="url(#paint0_linear_1454_5862)"/>
<path d="M26.4595 24.0314C26.3616 24.0827 26.2851 24.167 26.2436 24.2695C26.2021 24.3719 26.1983 24.4857 26.233 24.5907C26.2676 24.6956 26.3384 24.7848 26.4328 24.8424C26.5271 24.9 26.6388 24.9222 26.748 24.905" stroke="#33213D" stroke-width="0.5" stroke-miterlimit="10"/>
<path d="M24.2283 19.9573C25.0636 19.9573 25.0636 21.2397 24.2283 21.2465H24.1914C23.3574 21.2397 23.3574 19.9641 24.1914 19.9573H24.2283Z" fill="#33213D"/>
<path d="M31.1008 19.8671C31.8746 19.8671 31.8746 21.0565 31.1008 21.0633H31.0652C30.2914 21.0565 30.2914 19.8739 31.0652 19.8671H31.1008Z" fill="#33213D"/>
</g>
</g>
<defs>
<linearGradient id="paint0_linear_1454_5862" x1="8.19971" y1="39.9382" x2="39.1629" y2="39.9382" gradientUnits="userSpaceOnUse">
<stop stop-color="#33213D"/>
<stop offset="1" stop-color="#E1B9E0"/>
</linearGradient>
<clipPath id="clip0_1454_5862">
<rect width="48" height="48" fill="white"/>
</clipPath>
</defs>
</svg>
