<svg width="24" height="24" viewBox="0 0 24 24" fill="none" xmlns="http://www.w3.org/2000/svg">
<circle cx="12" cy="12" r="12" fill="#7614AC"/>
<path d="M15.5156 11.5H12.5V8.48438C12.5 8.20937 12.275 7.98438 12 7.98438C11.725 7.98438 11.5 8.20937 11.5 8.48438V11.5H8.48438C8.20937 11.5 7.98438 11.725 7.98438 12C7.98438 12.1375 8.04062 12.2625 8.13125 12.3531C8.22187 12.4437 8.34688 12.5 8.48438 12.5H11.5V15.5156C11.5 15.6531 11.5562 15.7781 11.6469 15.8687C11.7375 15.9594 11.8625 16.0156 12 16.0156C12.275 16.0156 12.5 15.7906 12.5 15.5156V12.5H15.5156C15.7906 12.5 16.0156 12.275 16.0156 12C16.0156 11.725 15.7906 11.5 15.5156 11.5Z" fill="white"/>
</svg>
