<svg width="120" height="120" viewBox="0 0 120 120" fill="none" xmlns="http://www.w3.org/2000/svg">
<g clip-path="url(#clip0_4248_7379)">
<path d="M20 20H50V50H20V20ZM100 20V50H70V20H100ZM70 75H80V65H70V55H80V65H90V55H100V65H90V75H100V90H90V100H80V90H65V100H55V80H70V75ZM80 75V90H90V75H80ZM20 100V70H50V100H20ZM30 30V40H40V30H30ZM80 30V40H90V30H80ZM30 80V90H40V80H30ZM20 55H30V65H20V55ZM45 55H65V75H55V65H45V55ZM55 30H65V50H55V30ZM10 10V30H0V10C0 7.34784 1.05357 4.8043 2.92893 2.92893C4.8043 1.05357 7.34784 0 10 0L30 0V10H10ZM110 0C112.652 0 115.196 1.05357 117.071 2.92893C118.946 4.8043 120 7.34784 120 10V30H110V10H90V0H110ZM10 90V110H30V120H10C7.34784 120 4.8043 118.946 2.92893 117.071C1.05357 115.196 0 112.652 0 110V90H10ZM110 110V90H120V110C120 112.652 118.946 115.196 117.071 117.071C115.196 118.946 112.652 120 110 120H90V110H110Z" fill="black"/>
</g>
<defs>
<clipPath id="clip0_4248_7379">
<rect width="120" height="120" fill="white"/>
</clipPath>
</defs>
</svg>
