<svg width="25" height="24" viewBox="0 0 25 24" fill="none" xmlns="http://www.w3.org/2000/svg">
<circle cx="12.5" cy="12" r="12" fill="#61C690"/>
<path d="M17.3892 8.18232L16.5815 7.34941C16.5494 7.3126 16.4989 7.29419 16.453 7.29419C16.4025 7.29419 16.3566 7.3126 16.3245 7.34941L10.7257 13.0049L8.68803 10.9618C8.65132 10.9249 8.60543 10.9065 8.55953 10.9065C8.51364 10.9065 8.46775 10.9249 8.43104 10.9618L7.61415 11.7809C7.54073 11.8545 7.54073 11.9695 7.61415 12.0432L10.1841 14.6201C10.3493 14.7858 10.5513 14.8824 10.7211 14.8824C10.9643 14.8824 11.1754 14.703 11.2534 14.6293H11.258L17.3938 8.44462C17.4581 8.36639 17.4581 8.25135 17.3892 8.18232Z" fill="white"/>
</svg>
