<svg width="72" height="72" viewBox="0 0 72 72" fill="none" xmlns="http://www.w3.org/2000/svg">
<circle cx="36" cy="36" r="36" fill="#61C690" fill-opacity="0.1"/>
<path d="M50.6669 27.5467L48.2438 25.048C48.1474 24.9375 47.996 24.8823 47.8583 24.8823C47.7069 24.8823 47.5692 24.9375 47.4728 25.048L30.6762 42.0145L24.5634 35.885C24.4532 35.7746 24.3155 35.7194 24.1779 35.7194C24.0402 35.7194 23.9025 35.7746 23.7924 35.885L21.3417 38.3424C21.1214 38.5632 21.1214 38.9084 21.3417 39.1292L29.0516 46.8601C29.5473 47.3571 30.1531 47.647 30.6625 47.647C31.3921 47.647 32.0255 47.1086 32.2595 46.8877H32.2733L50.6807 28.3336C50.8734 28.0989 50.8734 27.7538 50.6669 27.5467Z" fill="#61C690"/>
</svg>
