<svg width="49" height="48" viewBox="0 0 49 48" fill="none" xmlns="http://www.w3.org/2000/svg">
<path d="M24.4998 47.1998C37.3128 47.1998 47.6998 36.8128 47.6998 23.9998C47.6998 11.1868 37.3128 0.799805 24.4998 0.799805C11.6868 0.799805 1.2998 11.1868 1.2998 23.9998C1.2998 36.8128 11.6868 47.1998 24.4998 47.1998Z" fill="#1AD2A4"/>
<path d="M24.5 48C11.268 48 0.5 37.232 0.5 24C0.5 10.768 11.268 0 24.5 0C37.732 0 48.5 10.768 48.5 24C48.5 37.232 37.732 48 24.5 48ZM24.5 1.6C12.148 1.6 2.1 11.648 2.1 24C2.1 36.352 12.148 46.4 24.5 46.4C36.852 46.4 46.9 36.352 46.9 24C46.9 11.648 36.852 1.6 24.5 1.6Z" fill="#455A64"/>
<path d="M24.4998 27.2003C18.8518 27.2003 9.2998 26.3523 9.2998 23.2003C9.2998 20.0963 18.5318 19.4083 21.3638 19.2803C21.8598 19.2483 22.1798 19.6003 22.1958 20.0483C22.2118 20.4963 21.8758 20.8643 21.4438 20.8803C14.4518 21.2163 11.0758 22.5923 10.8998 23.2163C11.1398 24.0323 16.0198 25.6003 24.4998 25.6003C32.9798 25.6003 37.8598 24.0323 38.0998 23.1843C37.9238 22.5923 34.5798 21.2323 27.6518 20.8803C27.2038 20.8643 26.8678 20.4803 26.8998 20.0483C26.9158 19.6163 27.2518 19.2483 27.7318 19.2963C30.5318 19.4403 39.6998 20.1443 39.6998 23.2163C39.6998 26.3523 30.1478 27.2003 24.4998 27.2003Z" fill="white"/>
<path d="M34.9 14.3998H14.1C13.652 14.3998 13.3 14.0478 13.3 13.5998C13.3 13.1518 13.652 12.7998 14.1 12.7998H34.9C35.348 12.7998 35.7 13.1518 35.7 13.5998C35.7 14.0478 35.348 14.3998 34.9 14.3998Z" fill="white"/>
<path d="M24.5002 37.5996C24.0522 37.5996 23.7002 37.2476 23.7002 36.7996V26.3996C23.7002 25.9516 24.0522 25.5996 24.5002 25.5996C24.9482 25.5996 25.3002 25.9516 25.3002 26.3996V36.7996C25.3002 37.2476 24.9482 37.5996 24.5002 37.5996Z" fill="white"/>
<path d="M24.5 23.9998C24.052 23.9998 23.7 23.6478 23.7 23.1998V13.5998C23.7 13.1518 24.052 12.7998 24.5 12.7998C24.948 12.7998 25.3 13.1518 25.3 13.5998V23.1998C25.3 23.6478 24.948 23.9998 24.5 23.9998Z" fill="white"/>
</svg>
