<svg width="32" height="32" viewBox="0 0 32 32" fill="none" xmlns="http://www.w3.org/2000/svg">
<circle cx="16" cy="16" r="16" fill="#F9F2FC"/>
<path d="M24 15.5001C24 14.7202 23.248 14.2522 22.648 13.9013C22.4617 13.7986 22.2826 13.684 22.112 13.558C22.1719 13.3469 22.2495 13.1407 22.3441 12.9418C22.6081 12.3178 22.9441 11.5458 22.4721 10.914C22.0001 10.2823 21.1362 10.3445 20.4401 10.407L20.44 10.4071C20.2189 10.4222 19.9971 10.4222 19.776 10.4071C19.72 10.2667 19.648 9.97816 19.6 9.79091C19.448 9.12801 19.248 8.30126 18.4721 8.05943C17.6961 7.81761 17.0721 8.36365 16.5521 8.80041C16.3802 8.96715 16.1957 9.12095 16 9.26055C15.8057 9.1335 15.6212 8.99275 15.4479 8.83945C14.9279 8.40271 14.28 7.8568 13.5279 8.09847C12.7759 8.34028 12.552 9.15138 12.4 9.81428C12.352 10.0015 12.28 10.2901 12.224 10.4304C12.0029 10.4457 11.7811 10.4457 11.56 10.4304C10.864 10.368 10.008 10.2979 9.52802 10.9374C9.04801 11.577 9.39208 12.3413 9.65605 12.9653H9.65592C9.75047 13.1642 9.82815 13.3702 9.88802 13.5815C9.71739 13.7074 9.53833 13.822 9.35203 13.9246C8.75202 14.2522 8 14.7202 8 15.5001C8 16.28 8.75202 16.7479 9.35203 17.0989C9.53832 17.2015 9.71738 17.3162 9.88802 17.4422C9.82815 17.6533 9.75047 17.8595 9.65592 18.0584C9.39194 18.6824 9.05592 19.4544 9.52788 20.0862C9.99986 20.7179 10.8638 20.6556 11.5599 20.5932L11.56 20.5931C11.7811 20.578 12.0029 20.578 12.224 20.5931C12.28 20.7335 12.352 21.022 12.4 21.2093C12.552 21.8722 12.752 22.6989 13.5279 22.9408C14.3039 23.1826 14.9279 22.6365 15.4479 22.1609V22.1607C15.6212 22.0075 15.8057 21.8667 16 21.7396C16.1943 21.8667 16.3788 22.0074 16.5521 22.1607C16.9588 22.5868 17.5044 22.8624 18.096 22.9408C18.2239 22.9383 18.3506 22.9173 18.4721 22.8784C19.272 22.6365 19.448 21.8099 19.6 21.1469C19.648 20.9596 19.72 20.6711 19.776 20.5307C19.9971 20.5156 20.2189 20.5156 20.44 20.5307C21.136 20.5931 21.992 20.6632 22.472 20.0237C22.952 19.3842 22.6079 18.6198 22.3439 17.9958L22.3441 17.996C22.2495 17.7971 22.1719 17.5909 22.112 17.3798C22.2826 17.2538 22.4617 17.1391 22.648 17.0365C23.248 16.7479 24 16.28 24 15.5001V15.5001ZM19.0241 14.0338L15.8241 17.9336C15.6839 18.1075 15.4746 18.2152 15.2481 18.23H15.2002C14.9875 18.2312 14.7831 18.1498 14.6322 18.0037L13.0321 16.4438V16.4439C12.8292 16.2461 12.7499 15.9577 12.8243 15.6874C12.8985 15.4173 13.115 15.2061 13.3923 15.1337C13.6694 15.0613 13.9652 15.1385 14.1681 15.3364L15.1361 16.2801L17.7761 13.0667C17.9612 12.8756 18.2327 12.7882 18.4982 12.8343C18.7637 12.8804 18.9875 13.0538 19.0935 13.2956C19.1995 13.5373 19.1734 13.8149 19.0241 14.0339L19.0241 14.0338Z" fill="#9884A4"/>
</svg>
