<svg width="18" height="16" viewBox="0 0 18 16" fill="none" xmlns="http://www.w3.org/2000/svg">
<path d="M9.75 6.73686V9.26318C9.75 9.9333 9.98705 10.5758 10.4089 11.0496C10.831 11.5233 11.4032 11.7895 12 11.7895H17.25C17.5061 11.7914 17.7604 11.7399 18 11.638V13.4737C18 14.1438 17.7629 14.7863 17.3411 15.2602C16.919 15.7338 16.3468 16 15.75 16H2.25C1.65317 16 1.08099 15.7338 0.658929 15.2602C0.237051 14.7863 0 14.1438 0 13.4737V2.52632C0 1.85619 0.237051 1.21374 0.658929 0.73985C1.08097 0.266163 1.65317 0 2.25 0H15.75C16.3468 0 16.919 0.266163 17.3411 0.73985C17.7629 1.21372 18 1.85619 18 2.52632V4.36201C17.7604 4.26013 17.5062 4.20863 17.25 4.21051H12C11.4032 4.21051 10.831 4.47667 10.4089 4.95036C9.98705 5.42423 9.75 6.0667 9.75 6.73682V6.73686Z" fill="#B1A3B8"/>
<path d="M17.25 5.89435H12C11.8011 5.89435 11.6103 5.98307 11.4696 6.14096C11.329 6.29886 11.25 6.51315 11.25 6.73645V9.26277C11.25 9.48607 11.329 9.70036 11.4696 9.85826C11.6103 10.0161 11.8011 10.1049 12 10.1049H17.25C17.4489 10.1049 17.6397 10.0161 17.7804 9.85826C17.921 9.70036 18 9.48607 18 9.26277V6.73645C18 6.51315 17.921 6.29886 17.7804 6.14096C17.6397 5.98307 17.4489 5.89435 17.25 5.89435ZM13.875 9.26277C13.5767 9.26277 13.2904 9.12969 13.0795 8.89284C12.8686 8.656 12.75 8.33455 12.75 7.99963C12.75 7.66472 12.8685 7.34323 13.0795 7.10643C13.2904 6.86963 13.5767 6.7365 13.875 6.7365C14.1733 6.7365 14.4596 6.86958 14.6705 7.10643C14.8814 7.34327 15 7.66472 15 7.99963C15 8.33455 14.8815 8.65604 14.6705 8.89284C14.4596 9.12964 14.1733 9.26277 13.875 9.26277Z" fill="#B1A3B8"/>
</svg>
