<svg width="50" height="50" viewBox="0 0 50 50" fill="none" xmlns="http://www.w3.org/2000/svg">
<path d="M11.2934 37.783C12.2794 39.2262 15.2721 42.307 19.3542 43.0832ZM19.6607 50C17.0895 49.5765 0 44.0142 0 25.2315C0 7.65822 15.0048 0 25.002 0C34.999 0 50 7.65822 50 25.2315C50 44.0142 32.9105 49.5765 30.3393 50C30.3393 50 29.8167 41.4565 30.1217 39.9923C30.4265 38.5283 29.388 36.172 29.388 36.172C31.8155 35.2637 35.5108 33.9618 36.7503 30.4685C37.712 27.758 38.317 23.822 35.627 20.1222C35.627 20.1222 36.3295 14.1452 34.999 13.9137C33.6688 13.6822 29.7495 16.2798 29.7495 16.2798C28.608 15.9562 26.0607 15.3369 25.0045 15.4485C23.948 15.3369 21.392 15.9562 20.2505 16.2798C20.2505 16.2798 16.3312 13.6822 15.0009 13.9137C13.6706 14.1452 14.3729 20.1222 14.3729 20.1222C11.6829 23.822 12.2879 27.758 13.2498 30.4685C14.4894 33.9618 18.1846 35.2637 20.612 36.172C20.612 36.172 19.5736 38.5283 19.8784 39.9923C20.1833 41.4565 19.6607 50 19.6607 50Z" fill="#D9D9D9"/>
</svg>
