<?xml version="1.0" standalone="no"?>
<!DOCTYPE svg PUBLIC "-//W3C//DTD SVG 20010904//EN"
 "http://www.w3.org/TR/2001/REC-SVG-20010904/DTD/svg10.dtd">
<svg version="1.0" xmlns="http://www.w3.org/2000/svg"
 width="512.000000pt" height="512.000000pt" viewBox="0 0 512.000000 512.000000"
 preserveAspectRatio="xMidYMid meet">

<g transform="translate(0.000000,512.000000) scale(0.100000,-0.100000)"
fill="#000000" stroke="none">
<path d="M2135 5114 c-343 -39 -598 -145 -842 -354 -187 -159 -353 -416 -427
-661 -40 -132 -56 -238 -63 -416 l-6 -163 -319 0 -318 0 0 -480 0 -480 320 0
320 0 0 -800 0 -800 -320 0 -320 0 0 -480 0 -480 1120 0 1120 0 0 480 0 480
-320 0 -320 0 0 800 0 800 805 0 805 0 0 -800 0 -800 -325 0 -325 0 0 -480 0
-480 1120 0 1120 0 0 480 0 480 -320 0 -320 0 0 1280 0 1280 -1280 0 -1280 0
0 99 c0 128 12 190 55 277 62 126 195 227 334 254 30 5 170 10 312 10 l259 0
0 480 0 480 -277 -1 c-153 -1 -291 -4 -308 -5z"/>
<path d="M3775 5114 c-68 -11 -159 -48 -215 -90 -212 -156 -259 -454 -104
-664 191 -260 577 -260 768 0 155 210 108 508 -104 664 -91 68 -239 106 -345
90z"/>
</g>
</svg>
