<svg width="50" height="48" viewBox="0 0 50 48" fill="none" xmlns="http://www.w3.org/2000/svg">
<path d="M24.9635 32.8495L33.067 42.4181C36.0693 45.9629 37.5705 47.7355 39.1418 47.304C40.713 46.8725 41.252 44.5398 42.3295 39.8741L48.3073 13.9932C49.967 6.80743 50.7968 3.21456 48.952 1.4424C47.1075 -0.329732 43.91 0.988678 37.5153 3.62552L7.84691 15.859C2.73233 17.9679 0.175028 19.0225 0.0126784 20.8345C-0.00394657 21.0199 -0.0042215 21.2066 0.0118535 21.392C0.168854 23.2048 2.72303 24.2683 7.83138 26.3948C10.146 27.3583 11.3033 27.8402 12.133 28.763C12.2263 28.8666 12.316 28.9741 12.402 29.0849C13.1665 30.0716 13.4927 31.3664 14.1452 33.9558L15.3663 38.8023C16.0013 41.3221 16.3187 42.5821 17.1502 42.754C17.9817 42.9257 18.7056 41.8809 20.1535 39.7913L24.9635 32.8495ZM24.9635 32.8495L24.169 31.9895C23.2648 31.0107 22.8128 30.5215 22.8128 29.9134C22.8128 29.3054 23.2648 28.8159 24.169 27.8371L33.1015 18.1688" fill="#D9D9D9"/>
</svg>
